<?xml version="1.0" encoding="UTF-8" standalone="no"?><svg xmlns="http://www.w3.org/2000/svg" xmlns:xlink="http://www.w3.org/1999/xlink" contentScriptType="application/ecmascript" contentStyleType="text/css" height="426px" preserveAspectRatio="none" style="width:513px;height:426px;background:#FFFFFF;" version="1.1" viewBox="0 0 513 426" width="513px" zoomAndPan="magnify"><defs><filter height="300%" id="f1jrnvp7t2tsea" width="300%" x="-1" y="-1"><feGaussianBlur result="blurOut" stdDeviation="2.0"/><feColorMatrix in="blurOut" result="blurOut2" type="matrix" values="0 0 0 0 0 0 0 0 0 0 0 0 0 0 0 0 0 0 .4 0"/><feOffset dx="4.0" dy="4.0" in="blurOut2" result="blurOut3"/><feBlend in="SourceGraphic" in2="blurOut3" mode="normal"/></filter></defs><g><!--MD5=[db6d18d8099558415abc41d00477ab92]
class Admin--><rect codeLine="2" fill="#FEFECE" filter="url(#f1jrnvp7t2tsea)" height="144.8516" id="Admin" style="stroke:#A80036;stroke-width:1.5;" width="111" x="34" y="7"/><ellipse cx="68.8" cy="23" fill="#ADD1B2" rx="11" ry="11" style="stroke:#A80036;stroke-width:1.0;"/><path d="M71.5656,18.875 Q71.7219,18.6563 71.9094,18.5469 Q72.0969,18.4375 72.3156,18.4375 Q72.6906,18.4375 72.925,18.6953 Q73.1594,18.9531 73.1594,19.5625 L73.1594,21.0156 Q73.1594,21.625 72.925,21.8906 Q72.6906,22.1563 72.3156,22.1563 Q71.9719,22.1563 71.7688,21.9531 Q71.5656,21.7656 71.4563,21.25 Q71.4094,20.8906 71.2219,20.7031 Q70.8938,20.3281 70.2844,20.1094 Q69.675,19.8906 69.05,19.8906 Q68.2844,19.8906 67.6516,20.2188 Q67.0188,20.5469 66.5266,21.2969 Q66.0344,22.0469 66.0344,23.0781 L66.0344,24.1719 Q66.0344,25.4063 66.925,26.2266 Q67.8156,27.0469 69.4094,27.0469 Q70.3469,27.0469 71.0031,26.7969 Q71.3938,26.6406 71.8156,26.2031 Q72.0813,25.9375 72.2297,25.8594 Q72.3781,25.7813 72.5813,25.7813 Q72.9094,25.7813 73.1672,26.0391 Q73.425,26.2969 73.425,26.6406 Q73.425,26.9844 73.0813,27.3906 Q72.5813,27.9688 71.7844,28.2969 Q70.7063,28.75 69.4094,28.75 Q67.8938,28.75 66.6906,28.125 Q65.7063,27.625 65.0188,26.5547 Q64.3313,25.4844 64.3313,24.2031 L64.3313,23.0469 Q64.3313,21.7188 64.9484,20.5703 Q65.5656,19.4219 66.6594,18.8047 Q67.7531,18.1875 68.9875,18.1875 Q69.7219,18.1875 70.3703,18.3516 Q71.0188,18.5156 71.5656,18.875 Z " fill="#000000"/><text fill="#000000" font-family="sans-serif" font-size="12" lengthAdjust="spacing" textLength="35" x="87.2" y="27.9102">Admin</text><line style="stroke:#A80036;stroke-width:1.5;" x1="35" x2="144" y1="39" y2="39"/><rect fill="none" height="6" style="stroke:#C82930;stroke-width:1.0;" width="6" x="42" y="47"/><text fill="#000000" font-family="sans-serif" font-size="11" lengthAdjust="spacing" textLength="39" x="54" y="54.4189">id: bignlt</text><ellipse cx="45" cy="63.8359" rx="3" ry="3" style="stroke:#038048;stroke-width:1.0;fill:none;"/><text fill="#000000" font-family="sans-serif" font-size="11" lengthAdjust="spacing" textLength="59" x="54" y="68.2549">nama: string</text><ellipse cx="45" cy="77.6719" rx="3" ry="3" style="stroke:#038048;stroke-width:1.0;fill:none;"/><text fill="#000000" font-family="sans-serif" font-size="11" lengthAdjust="spacing" textLength="81" x="54" y="82.0908">username: string</text><ellipse cx="45" cy="91.5078" rx="3" ry="3" style="stroke:#038048;stroke-width:1.0;fill:none;"/><text fill="#000000" font-family="sans-serif" font-size="11" lengthAdjust="spacing" textLength="83" x="54" y="95.9268">password: string</text><ellipse cx="45" cy="105.3438" rx="3" ry="3" style="stroke:#038048;stroke-width:1.0;fill:none;"/><text fill="#000000" font-family="sans-serif" font-size="11" lengthAdjust="spacing" textLength="54" x="54" y="109.7627">level: enum</text><line style="stroke:#A80036;stroke-width:1.5;" x1="35" x2="144" y1="116.1797" y2="116.1797"/><ellipse cx="45" cy="127.1797" fill="#84BE84" rx="3" ry="3" style="stroke:#038048;stroke-width:1.0;"/><text fill="#000000" font-family="sans-serif" font-size="11" lengthAdjust="spacing" textLength="85" x="54" y="131.5986">rememberToken()</text><ellipse cx="45" cy="141.0156" fill="#84BE84" rx="3" ry="3" style="stroke:#038048;stroke-width:1.0;"/><text fill="#000000" font-family="sans-serif" font-size="11" lengthAdjust="spacing" textLength="62" x="54" y="145.4346">timestamps()</text><!--MD5=[bb0856892bd200c459be2cd0c1749e79]
class Kamar--><rect codeLine="12" fill="#FEFECE" filter="url(#f1jrnvp7t2tsea)" height="144.8516" id="Kamar" style="stroke:#A80036;stroke-width:1.5;" width="121" x="180" y="7"/><ellipse cx="218.4" cy="23" fill="#ADD1B2" rx="11" ry="11" style="stroke:#A80036;stroke-width:1.0;"/><path d="M221.1656,18.875 Q221.3219,18.6563 221.5094,18.5469 Q221.6969,18.4375 221.9156,18.4375 Q222.2906,18.4375 222.525,18.6953 Q222.7594,18.9531 222.7594,19.5625 L222.7594,21.0156 Q222.7594,21.625 222.525,21.8906 Q222.2906,22.1563 221.9156,22.1563 Q221.5719,22.1563 221.3688,21.9531 Q221.1656,21.7656 221.0563,21.25 Q221.0094,20.8906 220.8219,20.7031 Q220.4938,20.3281 219.8844,20.1094 Q219.275,19.8906 218.65,19.8906 Q217.8844,19.8906 217.2516,20.2188 Q216.6188,20.5469 216.1266,21.2969 Q215.6344,22.0469 215.6344,23.0781 L215.6344,24.1719 Q215.6344,25.4063 216.525,26.2266 Q217.4156,27.0469 219.0094,27.0469 Q219.9469,27.0469 220.6031,26.7969 Q220.9938,26.6406 221.4156,26.2031 Q221.6813,25.9375 221.8297,25.8594 Q221.9781,25.7813 222.1813,25.7813 Q222.5094,25.7813 222.7672,26.0391 Q223.025,26.2969 223.025,26.6406 Q223.025,26.9844 222.6813,27.3906 Q222.1813,27.9688 221.3844,28.2969 Q220.3063,28.75 219.0094,28.75 Q217.4938,28.75 216.2906,28.125 Q215.3063,27.625 214.6188,26.5547 Q213.9313,25.4844 213.9313,24.2031 L213.9313,23.0469 Q213.9313,21.7188 214.5484,20.5703 Q215.1656,19.4219 216.2594,18.8047 Q217.3531,18.1875 218.5875,18.1875 Q219.3219,18.1875 219.9703,18.3516 Q220.6188,18.5156 221.1656,18.875 Z " fill="#000000"/><text fill="#000000" font-family="sans-serif" font-size="12" lengthAdjust="spacing" textLength="37" x="237.6" y="27.9102">Kamar</text><line style="stroke:#A80036;stroke-width:1.5;" x1="181" x2="300" y1="39" y2="39"/><rect fill="none" height="6" style="stroke:#C82930;stroke-width:1.0;" width="6" x="188" y="47"/><text fill="#000000" font-family="sans-serif" font-size="11" lengthAdjust="spacing" textLength="39" x="200" y="54.4189">id: bignlt</text><ellipse cx="191" cy="63.8359" rx="3" ry="3" style="stroke:#038048;stroke-width:1.0;fill:none;"/><text fill="#000000" font-family="sans-serif" font-size="11" lengthAdjust="spacing" textLength="94" x="200" y="68.2549">nama_kamar: string</text><ellipse cx="191" cy="77.6719" rx="3" ry="3" style="stroke:#038048;stroke-width:1.0;fill:none;"/><text fill="#000000" font-family="sans-serif" font-size="11" lengthAdjust="spacing" textLength="87" x="200" y="82.0908">foto_kamar: string</text><ellipse cx="191" cy="91.5078" rx="3" ry="3" style="stroke:#038048;stroke-width:1.0;fill:none;"/><text fill="#000000" font-family="sans-serif" font-size="11" lengthAdjust="spacing" textLength="68" x="200" y="95.9268">jum_kamar: int</text><ellipse cx="191" cy="105.3438" rx="3" ry="3" style="stroke:#038048;stroke-width:1.0;fill:none;"/><text fill="#000000" font-family="sans-serif" font-size="11" lengthAdjust="spacing" textLength="80" x="200" y="109.7627">harga_kamar: int</text><ellipse cx="191" cy="119.1797" rx="3" ry="3" style="stroke:#038048;stroke-width:1.0;fill:none;"/><text fill="#000000" font-family="sans-serif" font-size="11" lengthAdjust="spacing" textLength="95" x="200" y="123.5986">deskripsi_kamar: int</text><rect fill="none" height="6" style="stroke:#C82930;stroke-width:1.0;" width="6" x="188" y="130.0156"/><text fill="#000000" font-family="sans-serif" font-size="11" lengthAdjust="spacing" textLength="84" x="200" y="137.4346">timestamps: false</text><line style="stroke:#A80036;stroke-width:1.5;" x1="181" x2="300" y1="143.8516" y2="143.8516"/><!--MD5=[78e04cb7ccd64039c8d6324b057f5b2f]
class FasilitasKamar--><rect codeLine="22" fill="#FEFECE" filter="url(#f1jrnvp7t2tsea)" height="103.3438" id="FasilitasKamar" style="stroke:#A80036;stroke-width:1.5;" width="163" x="336" y="28"/><ellipse cx="372.15" cy="44" fill="#ADD1B2" rx="11" ry="11" style="stroke:#A80036;stroke-width:1.0;"/><path d="M374.9156,39.875 Q375.0719,39.6563 375.2594,39.5469 Q375.4469,39.4375 375.6656,39.4375 Q376.0406,39.4375 376.275,39.6953 Q376.5094,39.9531 376.5094,40.5625 L376.5094,42.0156 Q376.5094,42.625 376.275,42.8906 Q376.0406,43.1563 375.6656,43.1563 Q375.3219,43.1563 375.1188,42.9531 Q374.9156,42.7656 374.8063,42.25 Q374.7594,41.8906 374.5719,41.7031 Q374.2438,41.3281 373.6344,41.1094 Q373.025,40.8906 372.4,40.8906 Q371.6344,40.8906 371.0016,41.2188 Q370.3688,41.5469 369.8766,42.2969 Q369.3844,43.0469 369.3844,44.0781 L369.3844,45.1719 Q369.3844,46.4063 370.275,47.2266 Q371.1656,48.0469 372.7594,48.0469 Q373.6969,48.0469 374.3531,47.7969 Q374.7438,47.6406 375.1656,47.2031 Q375.4313,46.9375 375.5797,46.8594 Q375.7281,46.7813 375.9313,46.7813 Q376.2594,46.7813 376.5172,47.0391 Q376.775,47.2969 376.775,47.6406 Q376.775,47.9844 376.4313,48.3906 Q375.9313,48.9688 375.1344,49.2969 Q374.0563,49.75 372.7594,49.75 Q371.2438,49.75 370.0406,49.125 Q369.0563,48.625 368.3688,47.5547 Q367.6813,46.4844 367.6813,45.2031 L367.6813,44.0469 Q367.6813,42.7188 368.2984,41.5703 Q368.9156,40.4219 370.0094,39.8047 Q371.1031,39.1875 372.3375,39.1875 Q373.0719,39.1875 373.7203,39.3516 Q374.3688,39.5156 374.9156,39.875 Z " fill="#000000"/><text fill="#000000" font-family="sans-serif" font-size="12" lengthAdjust="spacing" textLength="84" x="390.85" y="48.9102">FasilitasKamar</text><line style="stroke:#A80036;stroke-width:1.5;" x1="337" x2="498" y1="60" y2="60"/><rect fill="none" height="6" style="stroke:#C82930;stroke-width:1.0;" width="6" x="344" y="68"/><text fill="#000000" font-family="sans-serif" font-size="11" lengthAdjust="spacing" textLength="39" x="356" y="75.4189">id: bignlt</text><ellipse cx="347" cy="84.8359" rx="3" ry="3" style="stroke:#038048;stroke-width:1.0;fill:none;"/><text fill="#000000" font-family="sans-serif" font-size="11" lengthAdjust="spacing" textLength="78" x="356" y="89.2549">kamar_id: bognlt</text><ellipse cx="347" cy="98.6719" rx="3" ry="3" style="stroke:#038048;stroke-width:1.0;fill:none;"/><text fill="#000000" font-family="sans-serif" font-size="11" lengthAdjust="spacing" textLength="137" x="356" y="103.0908">nama_fasilitas_kamar: string</text><rect fill="none" height="6" style="stroke:#C82930;stroke-width:1.0;" width="6" x="344" y="109.5078"/><text fill="#000000" font-family="sans-serif" font-size="11" lengthAdjust="spacing" textLength="84" x="356" y="116.9268">timestamps: false</text><line style="stroke:#A80036;stroke-width:1.5;" x1="337" x2="498" y1="123.3438" y2="123.3438"/><!--MD5=[86cdd8d399214c17ab4516564b392c93]
class fasilitasHotel--><rect codeLine="29" fill="#FEFECE" filter="url(#f1jrnvp7t2tsea)" height="117.1797" id="fasilitasHotel" style="stroke:#A80036;stroke-width:1.5;" width="165" x="7" y="253.5"/><ellipse cx="49.45" cy="269.5" fill="#ADD1B2" rx="11" ry="11" style="stroke:#A80036;stroke-width:1.0;"/><path d="M52.2156,265.375 Q52.3719,265.1563 52.5594,265.0469 Q52.7469,264.9375 52.9656,264.9375 Q53.3406,264.9375 53.575,265.1953 Q53.8094,265.4531 53.8094,266.0625 L53.8094,267.5156 Q53.8094,268.125 53.575,268.3906 Q53.3406,268.6563 52.9656,268.6563 Q52.6219,268.6563 52.4188,268.4531 Q52.2156,268.2656 52.1063,267.75 Q52.0594,267.3906 51.8719,267.2031 Q51.5438,266.8281 50.9344,266.6094 Q50.325,266.3906 49.7,266.3906 Q48.9344,266.3906 48.3016,266.7188 Q47.6688,267.0469 47.1766,267.7969 Q46.6844,268.5469 46.6844,269.5781 L46.6844,270.6719 Q46.6844,271.9063 47.575,272.7266 Q48.4656,273.5469 50.0594,273.5469 Q50.9969,273.5469 51.6531,273.2969 Q52.0438,273.1406 52.4656,272.7031 Q52.7313,272.4375 52.8797,272.3594 Q53.0281,272.2813 53.2313,272.2813 Q53.5594,272.2813 53.8172,272.5391 Q54.075,272.7969 54.075,273.1406 Q54.075,273.4844 53.7313,273.8906 Q53.2313,274.4688 52.4344,274.7969 Q51.3563,275.25 50.0594,275.25 Q48.5438,275.25 47.3406,274.625 Q46.3563,274.125 45.6688,273.0547 Q44.9813,271.9844 44.9813,270.7031 L44.9813,269.5469 Q44.9813,268.2188 45.5984,267.0703 Q46.2156,265.9219 47.3094,265.3047 Q48.4031,264.6875 49.6375,264.6875 Q50.3719,264.6875 51.0203,264.8516 Q51.6688,265.0156 52.2156,265.375 Z " fill="#000000"/><text fill="#000000" font-family="sans-serif" font-size="12" lengthAdjust="spacing" textLength="72" x="69.55" y="274.4102">fasilitasHotel</text><line style="stroke:#A80036;stroke-width:1.5;" x1="8" x2="171" y1="285.5" y2="285.5"/><rect fill="none" height="6" style="stroke:#C82930;stroke-width:1.0;" width="6" x="15" y="293.5"/><text fill="#000000" font-family="sans-serif" font-size="11" lengthAdjust="spacing" textLength="39" x="27" y="300.9189">id: bignlt</text><ellipse cx="18" cy="310.3359" rx="3" ry="3" style="stroke:#038048;stroke-width:1.0;fill:none;"/><text fill="#000000" font-family="sans-serif" font-size="11" lengthAdjust="spacing" textLength="131" x="27" y="314.7549">nama_fasilitas_hotel: string</text><ellipse cx="18" cy="324.1719" rx="3" ry="3" style="stroke:#038048;stroke-width:1.0;fill:none;"/><text fill="#000000" font-family="sans-serif" font-size="11" lengthAdjust="spacing" textLength="124" x="27" y="328.5908">foto_fasilitas_hotel: string</text><ellipse cx="18" cy="338.0078" rx="3" ry="3" style="stroke:#038048;stroke-width:1.0;fill:none;"/><text fill="#000000" font-family="sans-serif" font-size="11" lengthAdjust="spacing" textLength="139" x="27" y="342.4268">deskripsi_fasilitas_hotel: text</text><rect fill="none" height="6" style="stroke:#C82930;stroke-width:1.0;" width="6" x="15" y="348.8438"/><text fill="#000000" font-family="sans-serif" font-size="11" lengthAdjust="spacing" textLength="84" x="27" y="356.2627">timestamps: false</text><line style="stroke:#A80036;stroke-width:1.5;" x1="8" x2="171" y1="362.6797" y2="362.6797"/><!--MD5=[063dc2c64a1aacacb340098d17393beb]
class Pemesanan--><rect codeLine="37" fill="#FEFECE" filter="url(#f1jrnvp7t2tsea)" height="200.1953" id="Pemesanan" style="stroke:#A80036;stroke-width:1.5;" width="138" x="207.5" y="212"/><ellipse cx="239.6" cy="228" fill="#ADD1B2" rx="11" ry="11" style="stroke:#A80036;stroke-width:1.0;"/><path d="M242.3656,223.875 Q242.5219,223.6563 242.7094,223.5469 Q242.8969,223.4375 243.1156,223.4375 Q243.4906,223.4375 243.725,223.6953 Q243.9594,223.9531 243.9594,224.5625 L243.9594,226.0156 Q243.9594,226.625 243.725,226.8906 Q243.4906,227.1563 243.1156,227.1563 Q242.7719,227.1563 242.5688,226.9531 Q242.3656,226.7656 242.2563,226.25 Q242.2094,225.8906 242.0219,225.7031 Q241.6938,225.3281 241.0844,225.1094 Q240.475,224.8906 239.85,224.8906 Q239.0844,224.8906 238.4516,225.2188 Q237.8188,225.5469 237.3266,226.2969 Q236.8344,227.0469 236.8344,228.0781 L236.8344,229.1719 Q236.8344,230.4063 237.725,231.2266 Q238.6156,232.0469 240.2094,232.0469 Q241.1469,232.0469 241.8031,231.7969 Q242.1938,231.6406 242.6156,231.2031 Q242.8813,230.9375 243.0297,230.8594 Q243.1781,230.7813 243.3813,230.7813 Q243.7094,230.7813 243.9672,231.0391 Q244.225,231.2969 244.225,231.6406 Q244.225,231.9844 243.8813,232.3906 Q243.3813,232.9688 242.5844,233.2969 Q241.5063,233.75 240.2094,233.75 Q238.6938,233.75 237.4906,233.125 Q236.5063,232.625 235.8188,231.5547 Q235.1313,230.4844 235.1313,229.2031 L235.1313,228.0469 Q235.1313,226.7188 235.7484,225.5703 Q236.3656,224.4219 237.4594,223.8047 Q238.5531,223.1875 239.7875,223.1875 Q240.5219,223.1875 241.1703,223.3516 Q241.8188,223.5156 242.3656,223.875 Z " fill="#000000"/><text fill="#000000" font-family="sans-serif" font-size="12" lengthAdjust="spacing" textLength="68" x="257.4" y="232.9102">Pemesanan</text><line style="stroke:#A80036;stroke-width:1.5;" x1="208.5" x2="344.5" y1="244" y2="244"/><rect fill="none" height="6" style="stroke:#C82930;stroke-width:1.0;" width="6" x="215.5" y="252"/><text fill="#000000" font-family="sans-serif" font-size="11" lengthAdjust="spacing" textLength="39" x="227.5" y="259.4189">id: bignlt</text><ellipse cx="218.5" cy="268.8359" rx="3" ry="3" style="stroke:#038048;stroke-width:1.0;fill:none;"/><text fill="#000000" font-family="sans-serif" font-size="11" lengthAdjust="spacing" textLength="74" x="227.5" y="273.2549">kamar_id: bignlt</text><ellipse cx="218.5" cy="282.6719" rx="3" ry="3" style="stroke:#038048;stroke-width:1.0;fill:none;"/><text fill="#000000" font-family="sans-serif" font-size="11" lengthAdjust="spacing" textLength="105" x="227.5" y="287.0908">tanggal_checkin: date</text><ellipse cx="218.5" cy="296.5078" rx="3" ry="3" style="stroke:#038048;stroke-width:1.0;fill:none;"/><text fill="#000000" font-family="sans-serif" font-size="11" lengthAdjust="spacing" textLength="112" x="227.5" y="300.9268">tanggal_checkout: date</text><ellipse cx="218.5" cy="310.3438" rx="3" ry="3" style="stroke:#038048;stroke-width:1.0;fill:none;"/><text fill="#000000" font-family="sans-serif" font-size="11" lengthAdjust="spacing" textLength="112" x="227.5" y="314.7627">jum_kamar_dipesan: int</text><ellipse cx="218.5" cy="324.1797" rx="3" ry="3" style="stroke:#038048;stroke-width:1.0;fill:none;"/><text fill="#000000" font-family="sans-serif" font-size="11" lengthAdjust="spacing" textLength="109" x="227.5" y="328.5986">nama_pemesan: string</text><ellipse cx="218.5" cy="338.0156" rx="3" ry="3" style="stroke:#038048;stroke-width:1.0;fill:none;"/><text fill="#000000" font-family="sans-serif" font-size="11" lengthAdjust="spacing" textLength="107" x="227.5" y="342.4346">email_pemesan: string</text><ellipse cx="218.5" cy="351.8516" rx="3" ry="3" style="stroke:#038048;stroke-width:1.0;fill:none;"/><text fill="#000000" font-family="sans-serif" font-size="11" lengthAdjust="spacing" textLength="63" x="227.5" y="356.2705">n0_hp: string</text><ellipse cx="218.5" cy="365.6875" rx="3" ry="3" style="stroke:#038048;stroke-width:1.0;fill:none;"/><text fill="#000000" font-family="sans-serif" font-size="11" lengthAdjust="spacing" textLength="88" x="227.5" y="370.1064">nama_tamu: string</text><ellipse cx="218.5" cy="379.5234" rx="3" ry="3" style="stroke:#038048;stroke-width:1.0;fill:none;"/><text fill="#000000" font-family="sans-serif" font-size="11" lengthAdjust="spacing" textLength="62" x="227.5" y="383.9424">status: enum</text><line style="stroke:#A80036;stroke-width:1.5;" x1="208.5" x2="344.5" y1="390.3594" y2="390.3594"/><ellipse cx="218.5" cy="401.3594" fill="#84BE84" rx="3" ry="3" style="stroke:#038048;stroke-width:1.0;"/><text fill="#000000" font-family="sans-serif" font-size="11" lengthAdjust="spacing" textLength="62" x="227.5" y="405.7783">timestamps()</text><!--MD5=[6863ff7ab0727bc685e6774439ed2ce4]
link Admin to Kamar--><!--MD5=[6fb6038ea99ffcafcb6d6a76bf5e1500]
link Kamar to FasilitasKamar--><!--MD5=[03b279a244bf8e8851f27f08629256bb]
link Admin to fasilitasHotel--><!--MD5=[42e6780d8bf1d609892184263fbc378e]
link fasilitasHotel to Pemesanan--><!--MD5=[51a67a0bd4ee5b0fac5cfabea062413b]
@startuml DiagramClassHotel

class Admin {
    -id: bignlt
    +nama: string
    +username: string
    +password: string
    +level: enum
    +rememberToken()
    +timestamps()
}

class Kamar{
    -id: bignlt
    +nama_kamar: string
    +foto_kamar: string
    +jum_kamar: int
    +harga_kamar: int
    +deskripsi_kamar: int
    -timestamps: false
}

class FasilitasKamar {
    -id: bignlt
    +kamar_id: bognlt
    +nama_fasilitas_kamar: string
    -timestamps: false
}

class fasilitasHotel { 
     -id: bignlt
    +nama_fasilitas_hotel: string
    +foto_fasilitas_hotel: string
    +deskripsi_fasilitas_hotel: text
    -timestamps: false  
}

class Pemesanan {
     -id: bignlt
    +kamar_id: bignlt
    +tanggal_checkin: date
    +tanggal_checkout: date
    +jum_kamar_dipesan: int
    +nama_pemesan: string
    +email_pemesan: string
    +n0_hp: string
    +nama_tamu: string
    +status: enum
    +timestamps() 
}

@enduml

PlantUML version 1.2022.0(Tue Jan 11 23:16:42 ICT 2022)
(GPL source distribution)
Java Runtime: Java(TM) SE Runtime Environment
JVM: Java HotSpot(TM) Client VM
Default Encoding: Cp1252
Language: en
Country: ID
--></g></svg>